<svg xmlns="http://www.w3.org/2000/svg" fill="none" viewBox="0 0 100 82"><path fill="#ECEAED" d="M56.4 60.1c-1.8 1.1-4 1.7-6.4 1.7-2.4 0-4.6-.6-6.4-1.7l-29-17.8s-2.7-1.6-2.7 2v17.8c0 9.4 17 19.5 38.1 19.5 21 0 38.1-10 38.1-19.5V61 43.3c0-2.9-1.9-1.4-1.9-1.4L56.4 60z"/><path fill="#ECEAED" d="M98.3 28.1c2.3-1.3 2.3-3.6 0-5l-44.2-22a8.5 8.5 0 00-8.2 0L1.7 23c-2.3 1.4-2.3 3.7 0 5l44.2 27.2a8.5 8.5 0 008.2 0"/><path fill="#462A4F" fill-opacity=".2" d="M41.5 34.7a12 12 0 019-4.1c5.6 0 8.8 4 9 4.1L57 36.6s-2.4-3-6.6-3a9 9 0 00-6.6 3l-2.4-1.9zM57.1 23.9a2.4 2.4 0 110-4.8 2.4 2.4 0 010 4.8zM43.9 23.9a2.4 2.4 0 110-4.8 2.4 2.4 0 010 4.8z"/><path fill="#ECEAED" d="M96.5 68.4v-30s0-1.4-.8-1c-.7.4-2.4 1.3-3 1.9-.6.5-.5 1.9-.5 1.9v27.2c0 .4-.3.6-.5.6a5.2 5.2 0 105.3 0c-.2 0-.5-.2-.5-.6z"/></svg>