<svg xmlns="http://www.w3.org/2000/svg" fill="none" viewBox="0 0 199 24"><path fill="#6D72C5" d="M31 19.2a5.2 5.2 0 01-4.4-1.8c-.5-.6-.9-1.3-1.1-2.2a10.6 10.6 0 010-6.2c.2-1 .6-1.7 1.2-2.3.5-.6 1.1-1.1 1.9-1.4.7-.3 1.5-.5 2.5-.5 1.2 0 2.3.3 3 .8 1 .5 1.6 1.3 2 2.4L34 9.2c-.2-.6-.5-1.1-1-1.5-.4-.4-1-.6-1.8-.6a3 3 0 00-2.4 1c-.6.7-.9 1.6-.9 2.8v2.2c0 1.3.3 2.2.9 2.8a3 3 0 002.4 1c.7 0 1.4-.2 1.9-.6.5-.5.9-1 1-1.6l2.2 1.2c-.5 1-1.2 1.9-2 2.5-.8.6-1.9.8-3.1.8zM42.5 19.2c-.8 0-1.5 0-2-.3-.7-.3-1.2-.7-1.6-1.1-.4-.5-.7-1-1-1.8-.2-.6-.3-1.4-.3-2.2 0-.9.1-1.6.4-2.3a5 5 0 011-1.7c.3-.5.8-.8 1.4-1.1.6-.3 1.3-.4 2-.4.8 0 1.5.1 2 .4A4 4 0 0146 9.8l1 1.7c.2.7.3 1.4.3 2.3 0 .8-.1 1.6-.3 2.2a5 5 0 01-1 1.8 4 4 0 01-1.5 1c-.6.3-1.3.4-2 .4zm0-2a2 2 0 001.6-.6c.3-.5.5-1 .5-1.9v-1.9c0-.8-.2-1.4-.5-1.8a2 2 0 00-1.6-.6 2 2 0 00-1.6.6c-.4.4-.6 1-.6 1.8v2c0 .7.2 1.3.6 1.8.4.4.9.6 1.6.6zM51.7 19L48.2 8.6h2.5l1.5 4.5 1 3.7h.1l1-3.7 1.5-4.5h2.4L54.7 19h-3zM61.2 7c-.5 0-1 0-1.2-.3-.2-.3-.3-.6-.3-1v-.3c0-.4.1-.7.3-1 .3-.2.7-.3 1.2-.3s.9.1 1.1.3c.3.3.4.6.4 1v.4c0 .3-.1.6-.4.9-.2.2-.6.3-1.1.3zm-1.3 1.6h2.6V19h-2.6V8.6zM72 17.3h-.2c-.2.6-.5 1-1 1.4-.6.4-1.2.5-1.9.5-1.3 0-2.3-.4-3-1.4-.7-1-1-2.3-1-4 0-1.8.3-3.1 1-4 .7-1 1.7-1.5 3-1.5.7 0 1.3.2 1.9.6.5.3.8.8 1 1.4h.1V4.2h2.6V19h-2.6v-1.7zm-2.2-.2c.6 0 1-.1 1.5-.4.4-.3.6-.7.6-1.3v-3.3c0-.5-.2-1-.6-1.2-.4-.3-1-.5-1.5-.5a2 2 0 00-1.7.7c-.4.4-.6 1-.6 1.8v1.8c0 .7.2 1.3.6 1.8.5.4 1 .6 1.7.6zM89.8 19c-.5 0-1-.2-1.3-.5-.3-.3-.5-.8-.6-1.3h-.1c-.2.7-.5 1.2-1 1.5-.6.4-1.3.5-2 .5-1.1 0-2-.2-2.5-.8a3 3 0 01-.9-2.2c0-1.1.4-2 1.2-2.4.8-.6 1.9-.8 3.3-.8h1.8v-.8c0-.6-.2-1-.5-1.4-.3-.3-.8-.4-1.5-.4-.6 0-1 0-1.4.4-.4.2-.7.5-1 .9l-1.5-1.4c.4-.6 1-1 1.6-1.4a5 5 0 012.5-.6c1.4 0 2.5.3 3.2 1 .8.6 1.1 1.5 1.1 2.7v5h1v2h-1.4zm-4.2-1.6c.6 0 1-.1 1.5-.4.4-.3.6-.6.6-1.1v-1.4H86c-1.3 0-2 .4-2 1.3v.3c0 .4.2.8.4 1 .3.2.7.3 1.2.3zM93.3 19V8.6H96v1.7c.3-.6.6-1 1-1.4a3 3 0 012-.6c1 0 2 .4 2.5 1 .6.8.9 1.8.9 3.1V19h-2.6v-6.3c0-.8-.1-1.3-.4-1.7-.3-.4-.7-.6-1.3-.6a2.6 2.6 0 00-1.5.5c-.2 0-.3.3-.4.5l-.2.7V19h-2.6zM111.6 17.3h-.1c-.2.6-.6 1-1 1.4-.6.4-1.2.5-2 .5-1.2 0-2.2-.4-3-1.4-.6-1-1-2.3-1-4 0-1.8.4-3.1 1-4 .8-1 1.8-1.5 3-1.5.8 0 1.4.2 2 .6.4.3.8.8 1 1.4V4.2h2.6V19h-2.5v-1.7zm-2.2-.2c.6 0 1.1-.1 1.5-.4.5-.3.7-.7.7-1.3v-3.3c0-.5-.2-1-.7-1.2-.4-.3-.9-.5-1.5-.5a2 2 0 00-1.6.7c-.4.4-.6 1-.6 1.8v1.8c0 .7.2 1.3.6 1.8.4.4 1 .6 1.6.6zM127.4 19.2a5.2 5.2 0 01-4.4-1.8c-.5-.6-1-1.3-1.2-2.2-.3-.9-.4-2-.4-3 0-1.3.1-2.3.4-3.2.3-1 .7-1.7 1.2-2.3.5-.6 1.2-1.1 1.9-1.4.7-.3 1.6-.5 2.5-.5 1.2 0 2.3.3 3.1.8.8.5 1.5 1.3 2 2.4l-2.3 1.2c-.2-.6-.5-1.1-1-1.5-.4-.4-1-.6-1.8-.6a3 3 0 00-2.4 1c-.5.7-.8 1.6-.8 2.8v2.2c0 1.3.3 2.2.8 2.8a3 3 0 002.4 1c.8 0 1.4-.2 2-.6.4-.5.8-1 1-1.6l2.1 1.2c-.5 1-1.1 1.9-2 2.5-.8.6-1.9.8-3.1.8zM138.8 19.2c-.8 0-1.4 0-2-.3l-1.6-1.1c-.4-.5-.7-1-1-1.8-.1-.6-.3-1.4-.3-2.2 0-.9.2-1.6.4-2.3a5 5 0 011-1.7c.4-.5.9-.8 1.5-1.1.6-.3 1.2-.4 2-.4.7 0 1.4.1 2 .4a4 4 0 011.5 1.1c.4.5.8 1 1 1.7.2.7.3 1.4.3 2.3 0 .8 0 1.6-.3 2.2a5 5 0 01-1 1.8 4 4 0 01-1.5 1c-.6.3-1.3.4-2 .4zm0-2a2 2 0 001.6-.6c.4-.5.6-1 .6-1.9v-1.9c0-.8-.2-1.4-.6-1.8a2 2 0 00-1.6-.6 2 2 0 00-1.6.6c-.4.4-.6 1-.6 1.8v2c0 .7.2 1.3.6 1.8.4.4 1 .6 1.6.6zM148.5 19c-1 0-1.6-.2-2-.7-.4-.4-.6-1-.6-1.8V4.2h2.6V17h1.3v2h-1.3zM154.2 19c-.9 0-1.5-.2-2-.7-.3-.4-.5-1-.5-1.8V4.2h2.5V17h1.4v2h-1.4zM161.8 19.2c-.8 0-1.5 0-2.1-.3l-1.6-1.1c-.4-.5-.7-1-1-1.8-.2-.6-.3-1.4-.3-2.2 0-.9.1-1.6.4-2.3.2-.6.5-1.2 1-1.7a4 4 0 011.4-1 5 5 0 012-.5 5 5 0 012.2.4c.6.3 1 .7 1.5 1.2.4.5.6 1 .8 1.7.2.6.3 1.3.3 2v.8h-7v.3c0 .7.3 1.4.7 1.8.5.5 1 .7 2 .7.6 0 1-.1 1.5-.4.4-.3.8-.6 1-1l1.5 1.5c-.5.6-1 1-1.8 1.4-.7.4-1.6.5-2.5.5zm0-9a2 2 0 00-1.7.7c-.4.5-.6 1-.6 1.8v.1h4.3v-.1c0-.8-.2-1.3-.6-1.8-.3-.4-.8-.7-1.5-.7zM178.1 19.9c0 .5-.1 1-.3 1.4-.2.4-.5.8-1 1-.4.4-1 .6-1.6.7a12.5 12.5 0 01-4.8 0c-.6 0-1.1-.2-1.5-.4a2 2 0 01-.9-.8 2 2 0 01-.2-1c0-.6.1-1 .4-1.4.4-.3.8-.5 1.4-.6v-.2c-.4-.1-.7-.4-1-.7-.2-.3-.3-.7-.3-1l.1-.8.5-.5.6-.4.7-.2v-.1c-.6-.3-1.1-.7-1.4-1.2-.3-.5-.5-1.1-.5-1.8 0-1.1.4-2 1.1-2.6.7-.7 1.8-1 3.2-1a7.3 7.3 0 011.8.3v-.4c0-1 .5-1.5 1.5-1.5h1.6v2h-2.2V9c.6.3 1 .7 1.2 1.2.3.5.4 1 .4 1.7 0 1-.3 1.9-1 2.5-.8.6-1.8 1-3.3 1l-1.6-.2c-.2 0-.3.2-.5.4l-.2.5c0 .5.4.8 1.3.8h2.8c1.3 0 2.3.3 2.8.8.6.5.9 1.2.9 2.2zm-2.4.3c0-.4-.1-.6-.4-.8-.3-.2-.7-.3-1.4-.3h-3.5c-.4.3-.6.6-.6 1.1 0 .4.2.7.5 1 .4.2 1 .3 1.7.3h1.3c.8 0 1.4-.1 1.8-.3.4-.3.6-.6.6-1zm-3-6.6c1.2 0 1.8-.5 1.8-1.6v-.3c0-1-.6-1.6-1.9-1.6-1.2 0-1.9.5-1.9 1.6v.3c0 1 .7 1.6 2 1.6zM183.7 19.2c-.8 0-1.5 0-2.1-.3-.6-.3-1.1-.7-1.5-1.1-.4-.5-.8-1-1-1.8-.2-.6-.3-1.4-.3-2.2 0-.9 0-1.6.3-2.3a5 5 0 011-1.7 4 4 0 011.5-1 5 5 0 012-.5 5 5 0 012.1.4c.6.3 1.1.7 1.5 1.2.4.5.7 1 .9 1.7.2.6.3 1.3.3 2v.8h-7v.3c0 .7.2 1.4.7 1.8.4.5 1 .7 1.9.7.6 0 1.1-.1 1.5-.4l1.1-1 1.4 1.5c-.4.6-1 1-1.8 1.4-.7.4-1.5.5-2.5.5zm0-9a2 2 0 00-1.7.7c-.4.5-.6 1-.6 1.8v.1h4.3v-.1c0-.8-.2-1.3-.5-1.8-.4-.4-.9-.7-1.6-.7zM194 19.2c-1 0-1.8-.1-2.5-.5a6 6 0 01-1.8-1.4l1.6-1.5c.4.4.8.8 1.2 1 .5.3 1 .4 1.6.4.7 0 1 0 1.4-.3.2-.2.4-.5.4-.9 0-.3-.1-.5-.3-.7-.2-.2-.5-.3-1-.4l-1-.1a5 5 0 01-2.6-1c-.6-.5-1-1.2-1-2.2 0-.5.2-1 .4-1.3.1-.5.4-.8.8-1 .3-.4.7-.6 1.2-.7.5-.2 1-.3 1.6-.3a6.7 6.7 0 012.5.5c.3 0 .6.3.8.5l.8.7-1.5 1.5a4 4 0 00-1-.8 3 3 0 00-1.5-.4c-.5 0-1 .1-1.2.3a1 1 0 00-.4.8c0 .4.1.6.3.8l1.1.4 1 .1c2.3.4 3.4 1.4 3.4 3.1 0 .5 0 1-.3 1.4l-.8 1.1-1.4.7a6 6 0 01-1.8.2z"/><g filter="url(#filter0_i)"><path fill="#FD436D" d="M16 2.4V11c0 1.8-.6 3.6-1.6 5-2.8 3.7-6.4 5.2-6.4 5.2S4.4 19.7 1.6 16A8.3 8.3 0 010 11V2.4c0-.6.7-1 1.3-.7a4.6 4.6 0 006-.9c.4-.4 1-.4 1.4 0a4.6 4.6 0 006 1c.6-.4 1.3 0 1.3.6z"/></g><path fill="#D53973" d="M1.7 3.8A6.3 6.3 0 008 2.5a6.3 6.3 0 006.3 1.3V11c0 1.5-.4 3-1.3 4a16 16 0 01-5 4.3c-1-.6-3.3-2-5-4.3a6.7 6.7 0 01-1.3-4V3.8z"/><g filter="url(#filter1_i)"><path fill="#fff" d="M11.8 9.2v2.5H9.3v2.5H6.7v-2.5H4.2V9.2h2.5V6.6h2.6v2.6h2.5z"/></g><defs><filter id="filter0_i" width="16" height="20.7" x="0" y=".5" color-interpolation-filters="sRGB" filterUnits="userSpaceOnUse"><feFlood flood-opacity="0" result="BackgroundImageFix"/><feBlend in="SourceGraphic" in2="BackgroundImageFix" result="shape"/><feColorMatrix in="SourceAlpha" result="hardAlpha" values="0 0 0 0 0 0 0 0 0 0 0 0 0 0 0 0 0 0 127 0"/><feOffset dx="1"/><feComposite in2="hardAlpha" k2="-1" k3="1" operator="arithmetic"/><feColorMatrix values="0 0 0 0 0.835294 0 0 0 0 0.223529 0 0 0 0 0.45098 0 0 0 1 0"/><feBlend in2="shape" result="effect1_innerShadow"/></filter><filter id="filter1_i" width="7.6" height="7.6" x="4.2" y="6.6" color-interpolation-filters="sRGB" filterUnits="userSpaceOnUse"><feFlood flood-opacity="0" result="BackgroundImageFix"/><feBlend in="SourceGraphic" in2="BackgroundImageFix" result="shape"/><feColorMatrix in="SourceAlpha" result="hardAlpha" values="0 0 0 0 0 0 0 0 0 0 0 0 0 0 0 0 0 0 127 0"/><feOffset dx="1"/><feComposite in2="hardAlpha" k2="-1" k3="1" operator="arithmetic"/><feColorMatrix values="0 0 0 0 0.5375 0 0 0 0 0.5375 0 0 0 0 0.5375 0 0 0 0.25 0"/><feBlend in2="shape" result="effect1_innerShadow"/></filter></defs></svg>